
<svg width="36" height="36" viewBox="0 0 24 24" fill="none" xmlns="http://www.w3.org/2000/svg">
  <path d="M5 5.5A3.5 3.5 0 0 1 8.5 2H12v7H8.5A3.5 3.5 0 0 1 5 5.5z" fill="#f24e1e"/>
  <path d="M12 2h3.5A3.5 3.5 0 1 1 12 5.5V2z" fill="#ff7262"/>
  <path d="M12 12.5a3.5 3.5 0 1 1 7 0 3.5 3.5 0 1 1-7 0z" fill="#1abcfe"/>
  <path d="M5 12.5A3.5 3.5 0 0 1 8.5 9H12v7H8.5A3.5 3.5 0 0 1 5 12.5z" fill="#0acf83"/>
  <path d="M5 19.5A3.5 3.5 0 0 1 8.5 16H12v3.5A3.5 3.5 0 0 1 5 19.5z" fill="#a259ff"/>
</svg>
