
<svg width="36" height="36" viewBox="0 0 24 24" fill="none" xmlns="http://www.w3.org/2000/svg">
  <rect x="2" y="2" width="20" height="20" rx="4" fill="#31C5F0"/>
  <path d="M7 6h3.5c1.38 0 2.5 1.12 2.5 2.5S11.88 11 10.5 11H8v3H7V6zm1 4h2.5c.83 0 1.5-.67 1.5-1.5S11.33 8 10.5 8H8v2z" fill="white"/>
  <path d="M14.5 11c-1.93 0-3.5 1.57-3.5 3.5s1.57 3.5 3.5 3.5c.97 0 1.84-.39 2.47-1.03l-.71-.71c-.44.44-1.05.71-1.76.71-1.38 0-2.5-1.12-2.5-2.5s1.12-2.5 2.5-2.5c.71 0 1.32.27 1.76.71l.71-.71C16.34 11.39 15.47 11 14.5 11z" fill="white"/>
</svg>
